<svg width="320" height="320" viewBox="0 0 320 320" fill="none" xmlns="http://www.w3.org/2000/svg">
<path d="M175.699 215.9C174.723 215.625 173.123 214.966 171.506 214.17C169.754 213.309 167.619 213.13 158.964 213.124C154.249 213.12 151.863 213.041 151.544 212.877C150.806 212.495 150.081 211.77 149.855 211.183C149.741 210.888 149.656 208.662 149.668 206.237L149.688 201.828L150.387 201.128C151.084 200.429 152.791 199.677 155.416 198.916C156.977 198.463 158.819 197.153 159.707 195.868C160.27 195.054 160.32 194.827 160.289 193.242C160.268 192.067 160.116 191.15 159.821 190.406C159.581 189.801 159.279 188.689 159.15 187.933C159.022 187.177 158.685 186.027 158.401 185.376C157.668 183.69 156.855 181.001 156.548 179.247C156.404 178.419 156.068 177.354 155.802 176.882C155.535 176.408 155.256 175.674 155.182 175.25C155.108 174.825 154.799 174.244 154.496 173.96L153.944 173.441L126.921 173.519C112.059 173.562 99.6838 173.679 99.4214 173.779C98.7814 174.022 98.4013 174.853 98.0813 176.709C97.9341 177.559 97.6832 178.365 97.5219 178.5C97.3594 178.633 97.0624 179.243 96.8602 179.855C96.6579 180.467 96.3597 181.174 96.1958 181.426C96.032 181.678 95.8029 182.5 95.6864 183.254C95.5686 184.008 95.1949 185.204 94.8544 185.914C93.5693 188.589 93.3478 189.176 93.1085 190.538C92.5082 193.951 92.6362 195.427 93.6282 196.53C94.2387 197.208 96.5555 198.71 96.992 198.71C97.5808 198.71 100.695 199.58 101.784 200.047C103.433 200.756 103.482 200.955 103.402 206.598L103.333 211.442L102.484 212.154C102.019 212.545 101.353 212.923 101.006 212.992C100.659 213.061 86.1082 213.119 68.6694 213.119H36.9638L36.0051 212.317C35.4394 211.844 34.9824 211.25 34.889 210.866C34.8006 210.507 34.7789 208.259 34.8378 205.869L34.9466 201.522L35.8579 200.595C36.7936 199.642 37.6922 199.272 40.4301 198.714C42.0262 198.388 46.1683 196.253 47.5789 195.028C49.0342 193.765 51.2576 190.866 51.6134 189.768C51.9232 188.815 52.448 187.584 53.3504 185.699C53.6909 184.989 54.0698 183.941 54.1939 183.369C54.3168 182.797 54.6099 181.953 54.8442 181.495C55.0771 181.037 55.2691 180.53 55.2691 180.367C55.2691 180.206 55.5456 179.645 55.8848 179.123C56.2266 178.597 56.6131 177.581 56.7526 176.849C56.8909 176.119 57.4822 174.564 58.071 173.381C58.6598 172.203 59.232 170.766 59.3434 170.189C59.456 169.611 60.0179 168.22 60.5939 167.096C61.1699 165.972 61.7536 164.49 61.8918 163.803C62.0301 163.114 62.3373 162.277 62.5766 161.942C62.8147 161.606 63.0106 161.263 63.0106 161.181C63.0106 161.098 63.2589 160.536 63.5622 159.931C63.8669 159.327 64.1984 158.394 64.2995 157.857C64.4851 156.884 64.7654 156.096 65.1456 155.484C65.7229 154.552 66.6726 152.106 66.8685 151.046C66.9926 150.374 67.3792 149.404 67.7402 148.86C68.096 148.323 68.3866 147.777 68.3866 147.648C68.3866 147.519 68.5734 147.066 68.8 146.642C69.0278 146.218 69.3171 145.308 69.4451 144.619C69.5718 143.932 69.8125 143.215 69.9802 143.028C70.4832 142.467 71.4176 140.211 71.8554 138.504C72.0819 137.622 72.4454 136.703 72.663 136.461C73.1123 135.963 74.0262 133.638 74.5229 131.73C74.7059 131.026 75.1424 130.019 75.4918 129.49C75.8426 128.961 76.1293 128.411 76.1293 128.266C76.1293 128.122 76.32 127.583 76.5542 127.067C76.7885 126.551 76.9818 125.879 76.9843 125.574C76.9869 125.27 77.2698 124.593 77.6128 124.069C77.9558 123.546 78.6509 121.86 79.1565 120.323C79.6621 118.785 80.215 117.362 80.3853 117.16C80.7168 116.767 81.5757 114.542 82.0608 112.822C82.2221 112.244 82.5626 111.423 82.816 110.994C83.2627 110.236 83.9168 108.515 84.7347 105.946C84.9549 105.253 85.2774 104.527 85.4515 104.333C85.6256 104.138 85.9251 103.435 86.1158 102.771C86.5037 101.431 87.8221 98.1696 88.1344 97.7779C88.2445 97.6396 88.5005 96.9459 88.704 96.2368C88.9062 95.5264 89.3056 94.4358 89.5898 93.8112C89.8752 93.1865 90.1082 92.5465 90.1082 92.3878C90.1082 92.2304 90.2963 91.8617 90.5254 91.5686C90.7558 91.2768 91.0579 90.5625 91.1974 89.9814C91.337 89.4003 91.6326 88.6041 91.8541 88.2137C92.0768 87.822 92.2598 87.3868 92.2611 87.246C92.2624 87.1052 92.5517 86.4217 92.9037 85.728C93.2557 85.0329 93.7293 83.872 93.9558 83.1475C94.6099 81.0598 95.2371 79.5072 95.6608 78.9248C95.8746 78.6291 96.1792 77.9033 96.3366 77.312C96.6566 76.11 97.3606 74.3014 98.2605 72.366C98.5907 71.6556 99.1296 70.2528 99.456 69.2467C99.7837 68.2419 100.326 66.8876 100.662 66.2361C101.457 64.6963 103.017 59.7772 103.168 58.3347C103.269 57.3683 103.19 57.0124 102.623 55.8592C102.258 55.118 101.688 54.2553 101.356 53.9417C100.38 53.0188 96.3085 51.0067 95.0886 50.8441C93.824 50.6764 92.8666 50.1491 92.3238 49.3209C91.9949 48.8192 91.9245 48.1446 91.8605 44.878C91.7722 40.3251 91.9616 39.2998 92.9882 38.7814C93.3555 38.5945 93.8074 38.3104 93.993 38.1478C94.2758 37.9008 99.913 37.8521 128.751 37.847C147.681 37.8444 163.352 37.9084 163.575 37.9891C163.796 38.0697 164.372 38.4038 164.855 38.7302C165.603 39.2371 165.769 39.4944 165.99 40.4851C166.134 41.1225 166.437 41.9929 166.665 42.4192C167.107 43.2435 167.999 45.8764 168.614 48.1715C168.82 48.9408 169.371 50.4896 169.836 51.6134C170.301 52.736 170.848 54.3232 171.05 55.1372C171.252 55.9526 171.562 56.8998 171.74 57.2416C172.183 58.0979 173.052 60.6105 173.645 62.7392C173.915 63.7132 174.231 64.6336 174.348 64.782C174.692 65.2236 176.344 70.0889 176.344 70.6585C176.344 70.9465 176.549 71.3881 176.799 71.6377C177.412 72.2508 178.668 72.0844 179.672 71.2563C181.061 70.112 181.612 69.7369 182.749 69.1622C183.375 68.846 184.246 68.2649 184.685 67.872C185.125 67.479 185.859 67.0348 186.318 66.8864C187.142 66.6188 188.736 65.6601 189.569 64.9305C189.806 64.7244 190.436 64.4441 190.968 64.3072C191.5 64.1715 192.573 63.6313 193.352 63.1065C194.131 62.5817 195.099 62.0454 195.503 61.9161C196.42 61.6204 198.656 60.4851 199.304 59.9859C199.571 59.7798 200.297 59.4944 200.916 59.351C201.536 59.2076 203 58.6137 204.172 58.0313C205.341 57.4476 206.758 56.8729 207.319 56.7526C207.878 56.6323 208.658 56.2982 209.05 56.0089C209.441 55.7196 209.911 55.4828 210.095 55.4816C210.28 55.4803 210.929 55.2473 211.538 54.9632C212.147 54.6803 213.212 54.3334 213.903 54.1939C214.596 54.0544 215.496 53.7459 215.905 53.5104C216.97 52.8934 220.07 51.8963 221.828 51.6044C222.656 51.4662 223.638 51.1782 224.01 50.9657C224.718 50.56 229.507 49.2377 231.712 48.8384C232.416 48.7104 233.481 48.4198 234.077 48.192C235.291 47.7273 239.479 46.798 241.935 46.4473C242.822 46.3206 244.323 45.9878 245.268 45.7088C247.407 45.0777 252.721 44.1497 255.903 43.8528C257.221 43.7299 258.706 43.4867 259.2 43.3126C259.694 43.1372 261.213 42.8505 262.577 42.6752C263.939 42.4998 266.115 42.1644 267.411 41.9302C268.709 41.6972 270.231 41.5052 270.796 41.5052C271.762 41.5052 271.857 41.5577 272.416 42.4038L273.011 43.3024L272.977 53.6396C272.938 64.9651 272.964 65.2211 274.122 65.5116C274.472 65.6 275.991 65.4553 277.739 65.1699C281.037 64.6284 284.367 64.3788 285.263 64.6028C286.541 64.9228 286.459 59.4534 286.399 140.42L286.344 214.614L285.766 215.191C285.324 215.635 284.924 215.79 284.046 215.862C282.372 215.997 277.515 214.909 276.065 214.074C275.734 213.883 274.524 213.554 273.376 213.344C270.892 212.888 267.872 212.154 266.236 211.606C264.884 211.154 263.182 210.845 260.86 210.633C259.973 210.551 259.005 210.392 258.71 210.278C258.414 210.166 257.156 209.839 255.914 209.554C254.673 209.267 253.172 208.901 252.581 208.739C251.99 208.576 249.875 208.324 247.884 208.179C245.892 208.035 243.956 207.823 243.583 207.712C242.399 207.355 233.363 206.228 229.784 205.992C226.04 205.743 213.943 205.898 212.151 206.217C211.56 206.322 209.962 206.566 208.602 206.761C207.242 206.955 205.307 207.305 204.301 207.538C203.296 207.77 201.505 208.058 200.323 208.175C197.556 208.453 196.765 208.603 196.233 208.948C195.995 209.103 195.177 209.39 194.415 209.585C193.655 209.78 192.833 210.061 192.591 210.208C192.348 210.356 191.437 210.598 190.565 210.747C189.615 210.908 188.677 211.222 188.224 211.529C187.807 211.812 187.359 212.043 187.228 212.043C187.096 212.045 186.409 212.334 185.699 212.689C184.989 213.042 184.31 213.332 184.189 213.332C184.069 213.332 183.585 213.597 183.114 213.92C182.139 214.589 181.3 215.081 180.215 215.62C179.337 216.056 176.812 216.212 175.699 215.9ZM179.14 207.633C180.964 205.795 182.916 204.086 183.191 204.086C183.328 204.086 183.803 203.771 184.247 203.387C185.325 202.454 186.15 201.887 187.43 201.201C188.015 200.887 188.882 200.346 189.354 199.997C189.828 199.649 190.739 199.164 191.378 198.92C192.018 198.675 192.792 198.301 193.1 198.089C194.013 197.453 196.746 196.129 197.151 196.125C197.358 196.123 197.953 195.832 198.473 195.48C198.994 195.127 199.553 194.839 199.717 194.839C199.881 194.839 200.471 194.609 201.029 194.327C201.586 194.045 202.478 193.745 203.011 193.659C203.543 193.573 204.413 193.277 204.946 193.002C206.002 192.456 208.646 191.631 211.181 191.058C212.067 190.858 212.986 190.57 213.224 190.417C213.462 190.264 214.236 190.035 214.947 189.908C215.656 189.782 217.253 189.487 218.495 189.254C219.736 189.02 221.587 188.73 222.607 188.605C223.629 188.483 225.515 188.187 226.802 187.949C232.777 186.843 246.464 186.838 251.869 187.94C252.97 188.164 254.646 188.413 255.592 188.493C257.359 188.643 265.696 189.997 266.321 190.236C266.793 190.417 267.685 189.801 267.822 189.199C267.883 188.929 267.882 189.339 267.821 190.108C267.631 192.462 267.59 192.783 267.429 193.161C267.327 193.402 267.465 193.778 267.831 194.257C268.509 195.146 268.513 195.2 266.909 195.796C266.598 195.744 265.455 195.61 264.367 195.497C263.281 195.386 262.079 195.131 261.695 194.932C260.38 194.253 254.012 193.325 249.247 193.117C243.436 192.867 234.323 192.867 228.709 193.12C223.715 193.345 219.045 194.045 217.281 194.835C216.675 195.108 215.246 195.427 213.871 195.599C211.29 195.923 208.494 196.682 207.311 197.381C206.898 197.626 205.891 197.933 205.073 198.062C203.455 198.319 200.792 199.357 200.108 199.999C199.863 200.227 199.053 200.509 198.235 200.651C196.915 200.881 196.727 200.982 196.017 201.847C195.59 202.368 195.302 202.89 195.375 203.009C195.562 203.311 196.353 203.279 197.343 202.93C197.804 202.767 198.711 202.564 199.359 202.477C200.008 202.39 200.856 202.187 201.244 202.027C201.633 201.867 202.986 201.582 204.25 201.394C205.514 201.207 207.277 200.87 208.166 200.648C209.857 200.224 211.311 200.026 217.204 199.416C221.624 198.959 234.28 198.898 238.817 199.31C240.474 199.461 243.037 199.685 244.516 199.809C247.258 200.038 250.086 200.465 251.348 200.838C251.735 200.954 253.187 201.156 254.574 201.29C257.28 201.55 264.069 202.825 265.484 203.338C265.957 203.51 267.022 203.754 267.849 203.88C270.013 204.21 274.076 205.267 275.663 205.914C277.064 206.486 277.627 206.474 278.323 205.864C278.668 205.563 278.691 201.521 278.696 140.782C278.698 105.163 278.756 75.2473 278.824 74.3014C279.031 71.3984 278.359 70.7865 275.347 71.1385C272.431 71.4777 272.69 70.4 272.675 82.2374C272.666 88.448 272.586 92.1804 272.467 91.886C272.311 91.4969 272.182 91.4393 271.782 91.584C270.775 91.95 270.103 94.4204 270.17 97.5168C270.208 99.3356 270.164 99.6288 269.824 99.8195C269.518 99.9897 269.444 100.26 269.486 101.052C269.515 101.61 269.485 102.157 269.418 102.269C269.35 102.382 269.234 103.199 269.158 104.086C269.083 104.973 268.932 105.989 268.824 106.344C268.508 107.378 268.402 115.162 268.259 147.849C268.183 164.763 268.086 178.643 268.04 178.692C267.994 178.74 267.956 149.596 267.956 113.924C267.956 78.2528 267.895 48.9075 267.821 48.7104C267.745 48.5145 267.479 48.2764 267.229 48.183C266.568 47.9334 260.664 48.5158 258.857 49.0086C258.007 49.2403 256.78 49.4963 256.129 49.5769C255.479 49.6576 254.075 49.9033 253.011 50.1222C251.946 50.3424 249.914 50.6265 248.494 50.7532C246.872 50.8979 245.341 51.1782 244.374 51.5059C243.526 51.7939 242.22 52.128 241.471 52.2483C240.721 52.3686 239.768 52.5683 239.355 52.6899C238.941 52.8128 237.548 53.0611 236.257 53.2428C234.794 53.4502 233.541 53.7612 232.924 54.0723C232.38 54.3475 231.51 54.6432 230.99 54.7289C230.469 54.816 229.737 55.0156 229.362 55.1718C228.987 55.3292 227.767 55.6096 226.652 55.7939C225.536 55.9795 224.14 56.3673 223.548 56.654C222.316 57.2544 219.569 58.1388 217.878 58.4819C217.244 58.6099 216.47 58.894 216.157 59.1116C215.566 59.5264 213.839 60.151 211.291 60.8768C210.463 61.1123 209.3 61.5347 208.709 61.815C206.998 62.6265 205.125 63.3971 204.193 63.671C203.721 63.8105 203.188 64.0409 203.011 64.1817C202.57 64.5312 200.047 65.7331 198.918 66.1312C198.41 66.3104 197.889 66.5446 197.76 66.6508C197.326 67.008 194.637 68.3494 193.821 68.6144C193.376 68.759 192.754 69.0572 192.44 69.2774C192.125 69.4976 191.809 69.6768 191.736 69.6768C191.663 69.6768 191.218 69.9212 190.747 70.2195C190.275 70.5164 189.422 70.944 188.852 71.1692C188.283 71.3932 187.388 71.8643 186.865 72.2163C186.342 72.5683 185.334 73.166 184.623 73.5449C183.914 73.9238 183.091 74.4448 182.796 74.702C181.955 75.4342 180.92 76.1164 180.288 76.3571C179.749 76.5619 179.355 76.8588 177.256 78.6393L176.452 79.3216L176.397 143.652C176.36 187.882 176.412 208.113 176.566 208.399C176.988 209.188 177.852 208.931 179.14 207.633ZM145.591 140.86C146.108 140.344 146.129 139.972 145.691 139.124C145.189 138.153 144.1 134.712 143.725 132.911C143.54 132.028 143.259 131.105 143.099 130.861C142.797 130.4 142.051 127.827 141.194 124.301C140.922 123.177 140.493 121.851 140.242 121.354C139.991 120.858 139.785 120.314 139.785 120.146C139.785 119.977 139.552 119.126 139.268 118.253C138.984 117.381 138.683 116.183 138.6 115.592C138.516 115 138.253 114.177 138.012 113.764C137.6 113.052 137.046 111.199 136.148 107.526C135.931 106.639 135.56 105.527 135.324 105.053C135.087 104.581 134.829 103.807 134.749 103.333C134.618 102.557 133.951 100.022 133.279 97.742C133.14 97.2684 132.854 96.5836 132.643 96.2201C132.433 95.8566 132.202 95.0822 132.131 94.4998C131.978 93.2467 131.039 89.5833 130.673 88.8166C130.33 88.0972 129.551 88.0128 128.901 88.6246C128.456 89.0432 127.526 91.4713 127.526 92.2176C127.526 92.3481 127.284 92.8102 126.989 93.2467C126.693 93.6819 126.451 94.2528 126.451 94.5152C126.451 95.1244 124.883 99.8412 124.308 100.959C124.068 101.428 123.871 101.949 123.871 102.118C123.871 102.569 122.167 107.56 121.841 108.068C121.687 108.306 121.49 108.838 121.403 109.251C121.151 110.443 119.558 115.114 119.226 115.639C119.059 115.903 118.785 116.677 118.619 117.359C118.218 118.996 117.516 120.943 116.876 122.185C116.593 122.737 116.25 123.656 116.115 124.228C115.745 125.798 114.62 129.07 114.244 129.668C114.061 129.958 113.693 131.022 113.427 132.033C112.879 134.112 112.197 136.059 111.62 137.192C111.055 138.298 110.7 139.761 110.851 140.361C110.922 140.646 111.195 140.965 111.459 141.071C111.724 141.178 119.332 141.27 128.548 141.276C144.884 141.29 145.169 141.284 145.591 140.86ZM271.512 90.4051C271.898 90.1542 272.043 89.8649 272.043 89.3568C272.043 88.3968 271.564 88.014 270.903 88.4467C270.495 88.7142 270.414 88.9395 270.45 89.7088C270.474 90.2233 270.505 90.6688 270.516 90.6995C270.577 90.8505 271.043 90.7136 271.512 90.4051Z" fill="#6F030A" stroke="#6F030A"/>
<path d="M269.247 196.317C268.36 196.079 267.551 195.804 267.448 195.703C267.157 195.416 267.533 195.005 267.981 195.122C268.518 195.263 268.494 195.127 267.831 194.257C267.465 193.778 267.327 193.402 267.429 193.161C267.671 192.593 267.768 191.507 267.826 188.709C268.091 176.009 268.193 165.965 268.283 143.763C268.397 115.82 268.518 107.346 268.824 106.344C268.933 105.989 269.083 104.973 269.158 104.086C269.234 103.199 269.35 102.382 269.418 102.269C269.485 102.157 269.516 101.61 269.486 101.052C269.444 100.26 269.518 99.9897 269.824 99.8195C270.165 99.6288 270.208 99.3357 270.17 97.5168C270.103 94.4217 270.774 91.9513 271.781 91.5853C272.179 91.4406 272.306 91.497 272.453 91.8861C272.552 92.1498 272.605 115.672 272.571 144.157C272.512 192.969 272.486 195.973 272.134 196.362C271.675 196.869 271.292 196.864 269.247 196.317Z" fill="#5B130A" stroke="#5B130A"/>
<path d="M220.637 179.124C220.467 178.807 220.413 173.357 220.449 160.038C220.476 149.786 220.481 124.974 220.458 104.9C220.426 75.735 220.472 68.3123 220.691 67.9641C221.014 67.4457 222.783 66.8083 223.322 67.0143C223.681 67.1526 223.697 69.8764 223.625 122.844C223.571 163.421 223.485 178.583 223.311 178.728C223.13 178.879 221.21 179.553 220.922 179.567C220.896 179.569 220.768 179.369 220.637 179.124Z" fill="#5B130A" stroke="#5B130A"/>
<path d="M192.884 187.651C192.833 187.601 192.813 163.238 192.837 133.512L192.881 79.4623L193.411 79.0041C193.766 78.6982 194.125 78.5817 194.499 78.6534C194.806 78.7123 195.208 78.6342 195.395 78.4793C195.674 78.2476 195.766 78.2527 195.927 78.5087C196.042 78.6918 196.122 100.669 196.119 132.474L196.115 186.129L195.616 186.696C195.341 187.008 194.915 187.371 194.669 187.502C194.234 187.736 193.066 187.832 192.884 187.651Z" fill="#490605" stroke="#490605"/>
<path d="M202.68 183.868C202.262 183.721 202.257 183.165 202.15 129.441C202.049 78.5843 202.066 75.1398 202.408 74.8134C202.609 74.6214 203.282 74.2988 203.903 74.0953C204.979 73.7446 205.046 73.7446 205.312 74.1081C205.54 74.4192 205.591 84.5209 205.591 128.415C205.591 159.364 205.51 182.552 205.4 182.84C205.179 183.424 203.366 184.109 202.68 183.868Z" fill="#5B130A" stroke="#5B130A"/>
<path d="M258.817 179.492L257.957 179.232L257.915 176.552C257.757 166.511 257.646 59.6877 257.793 59.5405C257.894 59.4393 258.473 59.3075 259.08 59.2473C259.922 59.1629 260.265 59.2205 260.535 59.4893C260.86 59.8157 260.879 63.4329 260.785 105.997C260.721 135.083 260.598 153.503 260.453 155.807C260.326 157.818 260.186 161.784 260.141 164.623C260.096 167.462 259.973 169.979 259.868 170.216C259.763 170.451 259.677 172.701 259.677 175.215C259.677 177.728 259.677 179.777 259.677 179.768C259.677 179.759 259.291 179.635 258.817 179.492Z" fill="#5B130A" stroke="#5B130A"/>
<path d="M229.731 178.248C229.517 178.034 229.463 166.446 229.466 121.731C229.468 87.4982 229.548 65.3606 229.669 65.1686C229.91 64.7859 232.033 64.2739 232.438 64.5005C232.678 64.6349 232.722 74.0787 232.701 121.066C232.685 158.495 232.603 177.606 232.46 177.875C232.317 178.141 232.006 178.281 231.552 178.282C231.172 178.285 230.666 178.337 230.431 178.401C230.194 178.464 229.879 178.395 229.731 178.248Z" fill="#5B130A" stroke="#5B130A"/>
<path d="M248.772 178.242C248.157 177.766 248.056 177.115 248.205 174.58C248.283 173.244 248.352 147.365 248.358 117.073C248.366 74.3628 248.428 61.8674 248.63 61.4233C248.919 60.7871 249.466 60.5785 250.561 60.6834L251.291 60.7526V119.291C251.291 162.486 251.227 177.892 251.048 178.071C250.662 178.455 249.19 178.566 248.772 178.242Z" fill="#5B130A" stroke="#5B130A"/>
<path d="M183.773 192.704C183.535 192.319 183.645 85.4706 183.885 84.7845C184.12 84.1074 185.932 82.7954 186.632 82.7954C186.975 82.7954 186.994 86.0594 186.952 136.505C186.926 166.045 186.9 190.344 186.894 190.501C186.888 190.657 186.51 191.154 186.057 191.603C184.878 192.769 184.059 193.165 183.773 192.704Z" fill="#6F030A" stroke="#6F030A"/>
<path d="M211.7 181.044C211.439 180.621 211.457 72.0563 211.72 71.552C211.905 71.1923 212.576 70.8544 214.003 70.3987C214.203 70.3347 214.406 70.4371 214.486 70.6419C214.58 70.8902 214.688 155.485 214.625 179.941C214.624 180.532 213.937 180.988 212.764 181.178C212.138 181.277 211.821 181.238 211.7 181.044Z" fill="#6F030A" stroke="#6F030A"/>
<path d="M239.192 177.672C238.977 177.535 238.917 165.928 238.895 120.417L238.867 63.3331L239.811 62.8621C240.989 62.2733 241.43 62.2541 241.711 62.7789C241.862 63.0605 241.934 81.5347 241.937 120.252C241.94 173.763 241.919 177.329 241.574 177.581C241.167 177.879 239.613 177.938 239.192 177.672Z" fill="#5B130A" stroke="#5B130A"/>
<path d="M259.662 179.26C259.41 178.258 259.657 170.413 259.951 170.058C260.116 169.86 260.189 169.357 260.137 168.79C260.088 168.273 260.142 165.043 260.255 161.613C260.369 158.182 260.532 152.376 260.622 148.709C260.75 143.377 260.791 145.75 260.822 160.573C260.842 170.766 260.801 179.258 260.73 179.444C260.524 179.981 259.812 179.858 259.662 179.26Z" fill="#490605" stroke="#490605"/>
<path d="M270.516 90.6995C270.505 90.6688 270.474 90.2233 270.45 89.7088C270.414 88.9395 270.495 88.7142 270.903 88.4467C271.564 88.014 272.044 88.3968 272.044 89.3568C272.044 89.8649 271.898 90.1542 271.512 90.4051C271.043 90.7136 270.577 90.8505 270.516 90.6995Z" fill="#5B130A" stroke="#5B130A"/>
<path d="M260.74 114.731C260.74 111.301 260.769 109.928 260.806 111.68C260.842 113.431 260.842 116.238 260.806 117.916C260.769 119.594 260.74 118.162 260.74 114.731Z" fill="#490605" stroke="#490605"/>
<path d="M194.194 78.5203C194.194 78.3283 194.908 78.0723 195.456 78.0672C195.694 78.0647 195.699 78.1274 195.484 78.3872C195.197 78.7328 194.194 78.8352 194.194 78.5203Z" fill="#5B130A" stroke="#5B130A"/>
<path d="M257.629 178.71C257.573 178.532 257.576 175.677 257.635 172.366L257.742 166.344L257.883 171.721C258.01 176.584 257.902 179.561 257.629 178.71Z" fill="#6F030A" stroke="#6F030A"/>
<path d="M123.699 278.236C123.557 278.094 123.441 277.61 123.441 277.161C123.441 276.215 123.776 275.814 125.484 274.723C126.391 274.141 126.702 273.797 126.886 273.171C127.05 272.614 127.101 268.435 127.055 259.639C126.991 247.223 126.979 246.898 126.551 246.326C126.271 245.951 125.729 245.632 125.046 245.44C123.24 244.933 121.917 242.95 122.999 242.372C123.229 242.249 124.124 242.004 124.988 241.829C128.826 241.051 130.504 240.644 131.521 240.244C132.12 240.009 133.423 239.704 134.415 239.569C135.407 239.433 136.385 239.233 136.59 239.123C137.33 238.728 137.86 238.897 138.157 239.624C138.382 240.175 138.403 241.069 138.254 243.855C138.093 246.876 138.113 247.461 138.392 247.887C138.573 248.163 138.802 248.387 138.902 248.387C139.002 248.387 139.584 247.99 140.195 247.503C141.289 246.63 142.058 245.359 141.837 244.785C141.311 245.061 143.064 243.521 143.013 243.441C143.119 243.441 143.373 243.087 143.579 242.655C143.784 242.223 144.239 241.715 144.591 241.526C144.945 241.338 145.617 240.845 146.085 240.433C146.981 239.645 148.006 239.278 150.317 238.916C151.93 238.664 153.243 238.813 154.579 239.405C155.459 239.794 155.519 239.873 155.423 240.503C155.25 241.632 154.172 245.661 153.917 246.125C153.787 246.364 153.528 247.382 153.343 248.387C153.007 250.199 152.998 250.216 152.324 250.281C151.95 250.318 151.274 250.161 150.822 249.931C148.808 248.911 144.605 248.744 143.497 249.64C143.171 249.903 142.612 250.253 142.258 250.417C141.436 250.797 140.739 251.565 140.571 252.274C140.499 252.579 140.202 253.179 139.91 253.609C139.619 254.039 139.278 254.757 139.154 255.206C138.793 256.503 138.848 271.444 139.217 272.325C139.604 273.254 141.546 274.972 142.999 275.672C144.316 276.306 144.75 277.057 144.33 277.978L144.095 278.495H134.026C126.482 278.495 123.892 278.429 123.699 278.236Z" fill="#6F030A" stroke="#6F030A"/>
<path d="M172.259 279.241C171.607 279.081 170.35 278.84 169.462 278.706C167.895 278.469 165.422 277.428 164.408 276.577C164.172 276.379 163.707 276.081 163.374 275.914C162.487 275.471 159.587 272.352 159.209 271.436C159.028 271 158.65 270.337 158.365 269.961C158.083 269.585 157.85 269.216 157.85 269.142C157.85 269.069 157.652 268.576 157.412 268.049C156.748 266.591 156.568 265.387 156.42 261.398C156.229 256.266 156.584 253.372 157.692 250.991C159.622 246.847 162.922 243.209 166.404 241.39C167.316 240.913 168.316 240.355 168.623 240.15C169.396 239.635 174.09 238.875 176.559 238.865C179.343 238.853 183.208 239.61 184.389 240.398C184.873 240.722 185.51 241.105 185.806 241.248C186.925 241.793 187.544 242.303 188.867 243.763C190.012 245.029 190.359 245.612 191.046 247.419C191.497 248.602 192.087 250.102 192.36 250.753C193.036 252.365 193.329 257.463 192.791 258.226L192.449 258.71H180.877C169.674 258.71 169.288 258.724 168.764 259.135C168.02 259.721 167.967 260.268 168.408 262.74C168.785 264.852 169.46 266.428 170.921 268.602C171.625 269.65 174.337 271.828 174.939 271.828C175.21 271.828 175.995 272.086 176.685 272.402C177.814 272.919 178.181 272.974 180.42 272.97C182.582 272.966 183.071 272.895 184.193 272.424C184.904 272.127 185.838 271.82 186.272 271.741C186.757 271.654 187.706 271.105 188.736 270.316C189.656 269.61 190.6 269.032 190.83 269.032C191.443 269.032 192.689 270.058 192.689 270.563C192.689 270.802 192.374 271.319 191.99 271.713C191.604 272.108 190.612 273.123 189.784 273.967C188.957 274.813 187.892 275.706 187.419 275.95C186.947 276.195 186.414 276.518 186.236 276.669C185.366 277.414 183.292 278.289 181.454 278.687C180.33 278.93 179.149 279.228 178.831 279.35C178.012 279.661 173.669 279.589 172.259 279.241ZM180.531 255.06C181.805 254.765 181.935 254.452 181.935 251.688C181.935 248.795 181.331 246.507 180.238 245.262C179.871 244.843 179.57 244.376 179.57 244.224C179.57 243.721 178.624 243.053 177.265 242.598C175.567 242.03 175.5 242.033 173.453 242.752C171.578 243.41 171.186 243.798 169.56 246.607C168.748 248.013 168.236 250.287 168.129 252.966C168.084 254.126 168.134 254.291 168.676 254.756C169.268 255.267 169.299 255.269 174.474 255.264C177.336 255.261 180.061 255.169 180.531 255.06Z" fill="#6F030A" stroke="#6F030A"/>
<path d="M43.7632 279.425C39.4227 278.474 39.2179 278.409 38.0275 277.582C36.7718 276.71 35.2755 274.926 34.7558 273.681C34.5933 273.293 34.3411 272.306 34.1952 271.487C33.9699 270.219 33.984 269.718 34.2912 268.082C34.9005 264.837 36.4544 262.729 39.1514 261.486C39.5712 261.293 40.297 260.895 40.7642 260.6C41.5245 260.123 42.4346 259.78 46.1286 258.583C46.72 258.392 48.023 257.955 49.024 257.613C50.0237 257.27 51.8144 256.783 53.0022 256.531C54.1901 256.28 55.4227 255.941 55.7414 255.779C56.5453 255.37 56.5594 255.379 56.5594 256.317C56.5594 257.731 56.3302 258.495 55.9053 258.495C55.6941 258.495 54.569 258.967 53.4054 259.546C52.2419 260.123 50.903 260.701 50.4307 260.829C49.3786 261.114 47.1936 263.258 46.3654 264.817C45.9034 265.687 45.8074 266.155 45.8086 267.505C45.8112 269.476 46.3808 270.858 47.7082 272.113C48.6003 272.957 50.3488 273.764 51.2845 273.764C52.1075 273.764 53.8099 273.014 55.3037 271.994C57.3171 270.62 57.2877 270.765 57.3504 261.992C57.3824 257.403 57.4861 254.47 57.6256 254.209C57.897 253.704 57.9123 250.706 57.6525 248.918C57.5501 248.203 57.2518 246.902 56.9907 246.024C56.3661 243.928 55.6634 243.218 53.687 242.687C52.3968 242.339 52.0448 242.322 50.8902 242.554C49.3363 242.865 48.736 243.254 47.8387 244.536C47.0566 245.654 45.8074 248.573 45.8048 249.286C45.8048 249.56 45.7011 250.157 45.5744 250.61C45.3082 251.57 44.448 252.047 42.2067 252.483C40.7795 252.76 40.7206 252.746 37.8086 251.433C36.2598 250.734 35.9539 248.335 37.1187 246.017C37.5898 245.082 38.144 244.507 40.0486 242.986C40.7258 242.446 44.384 240.86 44.9536 240.86C45.1059 240.86 45.6269 240.628 46.1107 240.347C47.2282 239.694 52.2739 238.922 55.4138 238.923C58.1824 238.925 62.7366 239.662 63.3331 240.205C63.5699 240.421 64.2125 240.826 64.7629 241.105C65.8381 241.651 67.3306 243.339 68.1498 244.936C69.0074 246.609 69.2429 250.081 69.2467 261.183L69.2518 271.076L69.7613 272.171C70.4154 273.574 71.3626 274.194 72.8589 274.194C73.7754 274.194 74.0173 274.282 74.3885 274.754C74.8762 275.374 74.7917 275.699 73.9418 276.495C72.567 277.78 68.0154 279.369 65.591 279.41C64.919 279.421 63.712 279.218 62.7955 278.94C60.7616 278.322 59.5571 277.194 59.1245 275.502C58.8122 274.286 58.4666 273.87 57.5834 273.65C57.0701 273.522 56.8525 273.651 55.863 274.678C55.241 275.323 54.4218 276.011 54.0429 276.206C53.664 276.399 53.2774 276.686 53.1827 276.842C52.361 278.196 46.0518 279.927 43.7632 279.425Z" fill="#6F030A" stroke="#6F030A"/>
<path d="M87.2691 278.936C86.1222 278.614 85.0086 278.214 84.7962 278.047C82.761 276.451 81.92 275.533 81.3837 274.318C81.065 273.599 80.5517 272.479 80.2406 271.828L79.6774 270.646L79.5699 258.602L79.4624 246.559L78.8736 245.441C78.3616 244.47 78.08 244.218 76.7232 243.506C75.465 242.847 75.1488 242.58 75.0963 242.132C75.0605 241.827 75.1795 241.454 75.3587 241.304C75.5405 241.155 76.7398 240.948 78.048 240.843C79.3472 240.739 81.1162 240.509 81.9789 240.333C83.4829 240.027 85.792 239.738 88.8422 239.473C89.9354 239.378 90.3245 239.421 90.5229 239.659C90.7136 239.89 90.7789 242.19 90.7763 248.534C90.775 253.243 90.8506 259.468 90.9453 262.365C91.0963 267.02 91.1718 267.772 91.584 268.817C92.3366 270.724 93.3773 271.731 95.2666 272.385C97.1546 273.038 97.7933 272.991 100.237 272.019C101.487 271.521 102.144 271.094 103.032 270.193L104.193 269.018V257.45V245.883L103.656 245.085C103.112 244.28 101.6 243.226 100.988 243.226C100.805 243.226 100.494 242.98 100.297 242.679C100.017 242.253 99.9898 242.022 100.169 241.628C100.378 241.17 100.585 241.108 102.404 240.965C103.506 240.878 104.892 240.672 105.484 240.507C108.332 239.712 115.273 239.055 115.58 239.552C115.661 239.681 115.729 246.586 115.731 254.894C115.734 263.203 115.817 270.667 115.917 271.484C116.119 273.147 116.636 273.88 117.894 274.287C118.385 274.446 118.723 274.761 118.991 275.313C119.489 276.331 119.224 276.897 118.115 277.176C117.312 277.377 110.981 278.566 109.354 278.82C108.882 278.894 108.072 279.096 107.555 279.269C105.789 279.858 105.466 279.433 105.242 276.238C105.032 273.248 104.291 272.847 102.326 274.66C100.576 276.276 97.4106 278.223 95.9117 278.605C95.1437 278.801 94.0454 279.098 93.4694 279.265C91.8886 279.726 89.6602 279.607 87.2691 278.936Z" fill="#6F030A" stroke="#6F030A"/>
<path d="M268.387 279.482C267.619 279.322 265.876 278.989 264.516 278.744C263.156 278.498 261.121 278.006 259.995 277.647C257.152 276.742 257.216 276.884 257.16 271.405C257.11 266.568 257.078 266.674 258.602 266.673C259.859 266.673 260.398 266.87 260.559 267.389C260.639 267.642 261.059 268.43 261.492 269.139C261.926 269.85 262.566 270.903 262.915 271.482C263.873 273.071 264.457 273.707 265.793 274.615C267.828 275.996 269.418 276.559 271.29 276.559C272.71 276.559 273.096 276.467 274.36 275.828C275.155 275.426 276.018 274.87 276.276 274.592C276.826 274.001 277.844 271.891 277.847 271.339C277.848 271.13 277.546 270.235 277.175 269.352C276.447 267.616 275.395 266.529 273.825 265.889C272.66 265.416 270.058 264.082 269.677 263.764C269.5 263.617 268.87 263.379 268.279 263.236C267.688 263.094 266.575 262.601 265.806 262.14C265.038 261.681 263.924 261.073 263.333 260.79C262.075 260.188 259.5 257.675 259.139 256.698C259.002 256.326 258.63 255.452 258.316 254.756C257.805 253.627 257.742 253.227 257.742 251.099C257.742 248.879 257.796 248.573 258.495 246.781C259.117 245.187 259.473 244.621 260.55 243.514C261.338 242.706 262.446 241.861 263.347 241.385C264.168 240.95 265.083 240.421 265.381 240.21C265.699 239.985 267.084 239.621 268.714 239.333C272.024 238.749 275.565 238.698 278.28 239.195C279.284 239.379 280.52 239.589 281.023 239.661C281.526 239.731 282.638 240.114 283.496 240.508C284.353 240.902 285.222 241.285 285.43 241.358C285.748 241.472 285.811 241.8 285.839 243.488C285.894 246.687 285.789 248.909 285.574 249.13C285.272 249.44 282.706 249.545 282.189 249.267C281.94 249.135 281.388 248.422 280.959 247.685C280.53 246.948 279.971 246.026 279.713 245.638C279.457 245.251 279.054 244.627 278.817 244.253C278.542 243.821 277.765 243.242 276.667 242.657C275.139 241.842 274.783 241.738 273.489 241.729C272.251 241.722 271.816 241.829 270.586 242.45C268.824 243.337 268.495 243.685 267.951 245.233C267.388 246.836 267.414 247.4 268.133 249.161L268.739 250.646L271.197 252.014C272.549 252.767 274.333 253.596 275.162 253.857C275.99 254.118 276.86 254.435 277.097 254.56C277.334 254.684 277.865 254.947 278.28 255.142C278.693 255.338 279.274 255.636 279.57 255.807C279.866 255.978 280.543 256.316 281.075 256.561C282.701 257.306 283.351 257.713 284.059 258.427C284.431 258.804 284.924 259.172 285.153 259.245C285.382 259.318 285.783 259.735 286.045 260.173C286.307 260.609 286.735 261.21 286.998 261.505C287.843 262.458 288.064 263.553 288.064 266.774C288.064 270.017 288.079 269.958 286.538 272.689C285.861 273.889 284.046 275.767 282.903 276.451C280.689 277.777 279.103 278.482 277.833 278.708C277.074 278.843 276.017 279.1 275.484 279.281C274.14 279.732 270.135 279.846 268.387 279.482Z" fill="#6F030A" stroke="#6F030A"/>
<path d="M233.318 278.385C232.657 278.034 232.138 276.911 231.836 275.181C231.584 273.732 230.689 271.371 230.083 270.55C229.857 270.245 229.544 269.271 229.385 268.385C229.076 266.656 228.26 264.47 227.552 263.476C227.313 263.139 227.013 262.222 226.888 261.439C226.764 260.654 226.339 259.211 225.946 258.232C225.28 256.576 225.187 256.452 224.608 256.452C223.999 256.452 223.965 256.513 222.989 259.48C222.441 261.147 221.841 262.743 221.656 263.028C221.472 263.315 221.123 264.322 220.881 265.268C220.362 267.3 219.697 269.231 219.133 270.336C218.911 270.772 218.57 271.755 218.378 272.52C218.188 273.284 217.53 274.916 216.918 276.147L215.807 278.387L212.69 278.447C209.947 278.5 209.541 278.463 209.303 278.138C209.155 277.934 209.032 277.564 209.032 277.316C209.032 277.067 208.836 276.481 208.595 276.013C208.049 274.946 206.451 270.401 206.451 269.911C206.451 269.711 206.218 269.069 205.934 268.482C205.299 267.179 204.175 263.922 203.867 262.495C203.743 261.916 203.464 261.19 203.249 260.882C202.821 260.27 202.182 258.486 201.422 255.782C201.152 254.822 200.722 253.697 200.466 253.284C200.21 252.869 200 252.369 200 252.171C200 251.974 199.758 251.336 199.462 250.753C199.167 250.17 198.925 249.513 198.925 249.295C198.925 248.735 196.973 244.947 196.07 243.755C195.86 243.479 195.302 243.082 194.829 242.874C194.163 242.579 193.917 242.321 193.738 241.722C193.612 241.297 193.54 240.712 193.581 240.421L193.656 239.892L202.816 239.839C211.576 239.787 211.992 239.803 212.346 240.193C212.604 240.479 212.695 240.882 212.648 241.537C212.585 242.408 212.513 242.507 211.613 242.961C211.081 243.228 210.478 243.663 210.273 243.928C209.87 244.449 209.772 245.823 210.093 246.424C210.203 246.63 210.441 247.644 210.621 248.676C210.802 249.709 211.142 250.912 211.378 251.352C212.105 252.708 213.038 255.309 213.32 256.769C213.468 257.535 213.779 258.534 214.012 258.99C214.245 259.447 214.623 260.555 214.853 261.455C215.384 263.529 215.74 264.086 216.538 264.086C217.307 264.086 217.554 263.789 217.98 262.356C218.166 261.729 218.452 261.011 218.618 260.76C218.781 260.509 219.069 259.534 219.258 258.593C219.444 257.651 219.776 256.494 219.992 256.022C221.583 252.545 221.719 252.119 221.949 249.894C222.307 246.451 221.908 244.457 220.662 243.434C219.142 242.187 219.14 242.184 219.14 241.21C219.14 240.691 219.26 240.169 219.409 240.049C219.809 239.722 234.792 239.693 235.183 240.019C235.653 240.408 235.569 242.066 235.054 242.58C234.817 242.817 234.495 243.011 234.339 243.011C234.181 243.011 233.821 243.258 233.537 243.56C233.149 243.973 233.028 244.334 233.046 245.011C233.078 246.235 233.889 249.304 234.561 250.753C234.863 251.403 235.237 252.42 235.392 253.011C236.013 255.378 236.801 257.738 237.075 258.053C237.417 258.445 237.435 258.501 238.971 263.871C239.214 264.723 239.327 264.846 239.91 264.904C240.275 264.939 240.672 264.842 240.792 264.689C241.027 264.386 242.016 261.233 242.262 260C242.344 259.587 242.602 258.935 242.834 258.554C243.228 257.903 243.891 255.798 244.649 252.796C244.828 252.086 245.162 251.185 245.391 250.792C245.857 249.995 246.451 246.95 246.451 245.361C246.451 244.064 245.868 243.329 244.536 242.95C242.916 242.49 242.084 240.66 243.226 240.069C243.968 239.685 255.274 239.661 255.656 240.043C256.023 240.411 255.976 241.967 255.579 242.533C255.395 242.795 255.032 243.013 254.772 243.016C254.163 243.022 253.466 243.59 253.048 244.424C252.865 244.787 252.557 245.217 252.362 245.378C251.779 245.864 250.753 248.106 250.616 249.197C250.546 249.756 250.262 250.569 249.985 251.003C249.198 252.233 248.396 254.364 248.054 256.129C247.882 257.016 247.557 257.992 247.332 258.298C246.834 258.971 245.875 261.577 245.487 263.305C245.331 264 245.019 264.823 244.791 265.134C244.358 265.728 243.14 269.252 242.922 270.539C242.853 270.954 242.54 271.776 242.225 272.366C241.911 272.956 241.528 273.875 241.375 274.408C240.911 276.017 240.169 278.163 240.027 278.307C239.953 278.379 238.538 278.493 236.882 278.559C234.573 278.65 233.742 278.609 233.318 278.385Z" fill="#6F030A" stroke="#6F030A"/>
<path d="M141.206 245.883C141.613 245.075 142.081 244.279 142.248 244.113C142.413 243.946 142.318 244.283 142.034 244.861C141.751 245.44 141.516 246.019 141.512 246.145C141.508 246.273 141.271 246.596 140.986 246.865C140.516 247.306 140.536 247.213 141.206 245.883Z" fill="#5B130A" stroke="#5B130A"/>
<path d="M56.7373 258.665C56.2125 258.258 56.4301 255.453 57.0163 255.087C57.3978 254.849 57.4182 254.921 57.3978 256.395C57.3862 257.254 57.3133 258.179 57.2365 258.45C57.1162 258.875 57.047 258.904 56.7373 258.665Z" fill="#611220" stroke="#611220"/>
<path d="M37.9034 251.995C37.0944 251.497 36.7078 251.098 36.7539 250.362C36.9331 250.898 37.2186 251.173 37.9046 251.47C38.4064 251.686 39.2038 252.042 39.6774 252.259L40.5376 252.653L39.785 252.671C39.2896 252.682 38.6445 252.451 37.9034 251.995Z" fill="#7C100E" stroke="#7C100E"/>
<path d="M285.882 243.656C285.882 242.651 285.919 242.239 285.964 242.742C286.01 243.245 286.01 244.067 285.964 244.57C285.919 245.073 285.882 244.662 285.882 243.656Z" fill="#7C100E" stroke="#7C100E"/>
</svg>
